<svg xmlns="http://www.w3.org/2000/svg" xmlns:svg="http://www.w3.org/2000/svg" id="svg12" aria-hidden="true" class="svg-inline--fa fa-file-pdf fa-w-12" data-icon="file-pdf" data-prefix="fas" focusable="false" role="img" version="1.1" viewBox="0 0 384 512"><metadata id="metadata18"/><rect id="rect856" width="720" height="720" x="-115.909" y="-38.032" ry="2.939" style="fill:#333;fill-opacity:1;stroke-width:.846629"/><path style="fill:#ff7e7f;fill-opacity:1" id="path10" fill="currentColor" d="m 300.09143,225.96751 h 136 v 328 c 0,13.3 -10.7,24 -24,24 H 76.091431 c -13.3,0 -24,-10.7 -24,-24 V 89.967516 c 0,-13.3 10.7,-24 24,-24 H 276.09143 V 201.96751 c 0,13.2 10.8,24 24,24 z m 129,-55 -98,-97.999994 c -4.5,-4.5 -10.6,-7 -17,-7 h -6 V 193.96751 h 128 v -6.1 c 0,-6.3 -2.5,-12.4 -7,-16.9 z"/><g id="g852" transform="translate(-522.67641,98.971099)"><rect style="fill:#f50036;fill-opacity:1;stroke-width:1.31095" id="rect843" width="300" height="120" x="516.155" y="162.996" ry="32"/><text style="font-style:normal;font-weight:400;font-size:96px;line-height:1.25;font-family:sans-serif;fill:#000;fill-opacity:1;stroke:none" id="text847" x="557.241" y="257.895" xml:space="preserve"><tspan id="tspan845" x="557.241" y="257.895" style="font-style:normal;font-variant:normal;font-weight:700;font-stretch:normal;font-family:sans-serif;-inkscape-font-specification:'sans-serif Bold';fill:#fff">PDF</tspan></text></g></svg>